<svg width="1920" height="1088" viewBox="0 0 1920 1088" fill="none" xmlns="http://www.w3.org/2000/svg">
<mask id="mask0_1203_1224" style="mask-type:alpha" maskUnits="userSpaceOnUse" x="0" y="0" width="1920" height="1088">
<rect width="1920" height="1088" fill="#0E0E10"/>
</mask>
<g mask="url(#mask0_1203_1224)">
<path d="M1543 1421.65C1598.86 1291.1 911.772 1166.06 1373.22 706.019C1786.5 294.001 1603.5 137.5 1482 -38.9998L1444.5 -52.9995C1546.32 97.0005 1708.5 417.019 1108.5 706.019C785.579 861.559 582.419 1190.02 775 1352.5L-228.067 1234.88L-202.187 1051.76L287 1503.5C259.07 1298.23 186.132 847.221 873 635.5C1504 441 1524.18 163.602 1421 -52.9995C1350.5 -200.999 1402.34 -437.256 986.5 -286" stroke="white"/>
<path d="M-162 832.5C-84.6667 679.167 184.4 258.1 782 344.5C1379.6 430.9 1470.17 121.333 1395 -34.5" stroke="white"/>
</g>
</svg>
