<svg width="1920" height="1088" viewBox="0 0 1920 1088" fill="none" xmlns="http://www.w3.org/2000/svg">
<mask id="mask0_1203_1224" style="mask-type:alpha" maskUnits="userSpaceOnUse" x="0" y="0" width="1920" height="1088">
<rect width="1920" height="1088" fill="#0E0E10"/>
</mask>
<g mask="url(#mask0_1203_1224)">
<path d="M1501.5 1450C1557.36 1319.45 911.773 1166.06 1373.22 706.019C1786.5 294 1726.03 43.9846 1546.32 -89.4626L1437.29 -76.2191C1673.62 30.7348 1749.5 338 1133 717C827.656 904.712 846.417 1227.02 1039 1389.5L-228.068 1234.88L-202.187 1051.76L-38.0735 1421.65C-66.0031 1216.38 50.3236 764.862 739.067 600.953C1600 396.066 1587.81 122.139 1407.86 -36.5376C1263.89 -163.479 1096.84 -356.757 680.999 -205.5" stroke="white"/>
</g>
</svg>
