<svg width="722" height="164" viewBox="0 0 722 164" fill="none" xmlns="http://www.w3.org/2000/svg">
<path d="M51.3095 8.92982L58.9444 2L67.1429 8.92982V117.035L58.9444 123.965L51.3095 117.035V8.92982Z" fill="white"/>
<path d="M13.1111 43.5789L25.6111 31.1053L28.3889 28.3333V111.491L15.8889 123.965L32.5556 140.596V160L2 129.509V117.035L13.1111 105.947V43.5789Z" fill="white"/>
<path d="M51.3095 8.92982L58.9444 2L67.1429 8.92982V117.035L58.9444 123.965L51.3095 117.035V8.92982Z" stroke="white" stroke-width="3"/>
<path d="M13.1111 43.5789L25.6111 31.1053L28.3889 28.3333V111.491L15.8889 123.965L32.5556 140.596V160L2 129.509V117.035L13.1111 105.947V43.5789Z" stroke="white" stroke-width="3"/>
<path d="M104.889 43.5789L92.3889 31.1053L89.6111 28.3333V111.491L102.111 123.965L85.4444 140.596V160L116 129.509V117.035L104.889 105.947V43.5789Z" fill="white" stroke="white" stroke-width="3"/>
<path d="M241.19 101.7V127H260.99V101.7L304.55 50H280.68L251.09 85.09L221.5 50H197.63L241.19 101.7ZM299.5 104.23C299.5 124.91 322.6 128.1 347.57 128.1C372.54 128.1 389.04 124.91 389.04 106.65C389.04 89.38 371.77 88.72 346.47 86.85C324.14 85.2 320.73 84.54 320.73 80.47C320.73 76.73 325.79 75.41 343.61 75.41C361.1 75.41 367.92 76.73 367.92 82.12H386.84C386.84 64.3 369.13 61.11 344.71 61.11C321.61 61.11 301.81 64.3 301.81 81.24C301.81 96.86 315.78 99.06 344.27 100.71C367.04 102.14 370.12 102.47 370.12 107.42C370.12 112.48 366.82 113.8 346.47 113.8C325.46 113.8 318.31 111.16 318.31 104.23H299.5ZM445.391 128.1C472.121 128.1 490.271 118.42 490.271 94.66C490.271 70.79 472.121 61.11 445.391 61.11C418.551 61.11 400.511 70.79 400.511 94.66C400.511 118.42 418.551 128.1 445.391 128.1ZM445.391 112.37C427.901 112.37 419.321 108.08 419.321 94.66C419.321 81.13 427.901 76.84 445.391 76.84C462.771 76.84 471.351 81.13 471.351 94.66C471.351 108.08 462.771 112.37 445.391 112.37ZM503.482 39V127H522.292V39H503.482ZM605.286 62.21L579.986 113.69L554.576 62.21H533.676L566.456 127H593.296L626.186 62.21H605.286ZM672.666 112.81C660.126 112.81 650.226 109.4 648.136 99.06H718.096C718.096 69.58 698.406 61.11 673.766 61.11C647.476 61.11 628.886 70.79 628.886 94.66C628.886 118.42 648.026 128.1 672.666 128.1C696.646 128.1 712.706 120.29 716.996 103.79H698.296C693.566 110.39 685.646 112.81 672.666 112.81ZM673.656 75.41C685.536 75.41 694.776 77.94 697.966 87.07H648.796C651.766 77.94 660.786 75.41 673.656 75.41Z" fill="white"/>
</svg>
