<svg width="1920" height="1088" viewBox="0 0 1920 1088" fill="none" xmlns="http://www.w3.org/2000/svg">
<mask id="mask0_1203_1224" style="mask-type:alpha" maskUnits="userSpaceOnUse" x="0" y="0" width="1920" height="1088">
<rect width="1920" height="1088" fill="#0E0E10"/>
</mask>
<g mask="url(#mask0_1203_1224)">
<path d="M493.419 1492.82C549.279 1362.26 803.443 1022.13 1373.22 706.019C1943 389.907 1726.03 43.9848 1546.32 -89.4623L1437.29 -76.2187C1673.62 30.7352 1886.41 355.973 846.863 801.294C-192.681 1246.62 -67.4053 1682.91 125.176 1845.39L-228.067 1234.88L-202.186 1051.76L-38.0722 1421.65C-66.0018 1216.38 50.3249 764.862 739.069 600.953C1600 396.066 1587.81 122.139 1407.86 -36.5373C1263.89 -163.478 396.228 107.3 -19.6097 258.556" stroke="white"/>
</g>
</svg>
